<svg xmlns="http://www.w3.org/2000/svg" viewBox="0 0 51.976 51.977">
  <defs>
    <style>
      .cls-1 {
        fill: #eb2f06;
      }
    </style>
  </defs>
  <g id="error" transform="translate(0 0)">
    <path id="Path_605" data-name="Path 605" class="cls-1" d="M44.373,7.6a26,26,0,1,0,0,36.77A26.03,26.03,0,0,0,44.373,7.6ZM36.241,36.241a2,2,0,0,1-2.828,0l-7.425-7.425L18.21,36.594a2,2,0,1,1-2.828-2.828l7.778-7.778-7.425-7.425a2,2,0,1,1,2.828-2.828l7.425,7.425,7.071-7.071a2,2,0,0,1,2.828,2.828l-7.071,7.071,7.425,7.425A2,2,0,0,1,36.241,36.241Z"/>
  </g>
</svg>
